HIERARCHY
ROOT Pelvis
{
	OFFSET 0.000000 0.000000 0.000000
	CHANNELS 6 Xposition Yposition Zposition Xrotation Yrotation Zrotation
	JOINT LeftUpLeg_virtual
	{
		OFFSET 0.000000 0.000000 0.000000
		CHANNELS 3 Xrotation Yrotation Zrotation
		JOINT LeftUpLeg
		{
			OFFSET 18.735201 -5.666702 -4.541200
			CHANNELS 3 Xrotation Yrotation Zrotation
			JOINT LeftLeg
			{
				OFFSET -0.021200 -31.938179 0.493100
				CHANNELS 3 Xrotation Yrotation Zrotation
				JOINT LeftFoot
				{
					OFFSET 0.021200 -31.938179 -4.336299
					CHANNELS 3 Xrotation Yrotation Zrotation
					JOINT LeftToeBase
					{
						OFFSET 0.943001 -26.722000 15.023500
						CHANNELS 3 Xrotation Yrotation Zrotation
						End Site
						{
							OFFSET 0 0 0
						}
					}
				}
			}
		}
	}
	JOINT RightUpLeg_virtual
	{
		OFFSET 0.000000 0.000000 0.000000
		CHANNELS 3 Xrotation Yrotation Zrotation
		JOINT RightUpLeg
		{
			OFFSET -18.735201 -5.666702 -4.541200
			CHANNELS 3 Xrotation Yrotation Zrotation
			JOINT RightLeg
			{
				OFFSET 0.018946 -31.938133 0.493100
				CHANNELS 3 Xrotation Yrotation Zrotation
				JOINT RightFoot
				{
					OFFSET -0.018946 -31.938126 -4.336299
					CHANNELS 3 Xrotation Yrotation Zrotation
					JOINT RightToeBase
					{
						OFFSET -0.943001 -26.722004 15.023500
						CHANNELS 3 Xrotation Yrotation Zrotation
						End Site
						{
							OFFSET 0 0 0
						}
					}
				}
			}
		}
	}
	JOINT Hips_virtual
	{
		OFFSET 0.000000 0.000000 0.000000
		CHANNELS 3 Xrotation Yrotation Zrotation
		JOINT Hips
		{
			OFFSET -0.000000 -0.000000 -0.000000
			CHANNELS 3 Xrotation Yrotation Zrotation
			JOINT Spine
			{
				OFFSET 0.000000 10.199997 -0.299500
				CHANNELS 3 Xrotation Yrotation Zrotation
				JOINT Spine1
				{
					OFFSET 0.000000 11.900002 -1.516600
					CHANNELS 3 Xrotation Yrotation Zrotation
					JOINT Spine2
					{
						OFFSET 0.000000 13.600006 -2.842500
						CHANNELS 3 Xrotation Yrotation Zrotation
						JOINT Neck_virtual
						{
							OFFSET 0.000000 0.000000 0.000000
							CHANNELS 3 Xrotation Yrotation Zrotation
							JOINT Neck
							{
								OFFSET 0.000000 9.624100 -2.890100
								CHANNELS 3 Xrotation Yrotation Zrotation
								JOINT Head
								{
									OFFSET 0.000000 14.068802 -1.351900
									CHANNELS 3 Xrotation Yrotation Zrotation
									End Site
									{
										OFFSET 0 0 0
									}
								}
							}
						}
						JOINT LeftShoulder_virtual
						{
							OFFSET 0.000000 0.000000 0.000000
							CHANNELS 3 Xrotation Yrotation Zrotation
							JOINT LeftShoulder
							{
								OFFSET 15.263000 10.923401 -0.547700
								CHANNELS 3 Xrotation Yrotation Zrotation
								JOINT LeftArm
								{
									OFFSET 25.438599 -2.830597 -13.032500
									CHANNELS 3 Xrotation Yrotation Zrotation
									JOINT LeftForeArm
									{
										OFFSET 29.960503 0.000000 0.000000
										CHANNELS 3 Xrotation Yrotation Zrotation
										JOINT LeftHand
										{
											OFFSET 27.849251 0.000000 0.000000
											CHANNELS 3 Xrotation Yrotation Zrotation
											End Site
											{
												OFFSET 0 0 0
											}
										}
									}
								}
							}
						}
						JOINT RightShoulder_virtual
						{
							OFFSET 0.000000 0.000000 0.000000
							CHANNELS 3 Xrotation Yrotation Zrotation
							JOINT RightShoulder
							{
								OFFSET -15.263000 10.923401 -0.547700
								CHANNELS 3 Xrotation Yrotation Zrotation
								JOINT RightArm
								{
									OFFSET -25.438599 -2.830597 -13.032500
									CHANNELS 3 Xrotation Yrotation Zrotation
									JOINT RightForeArm
									{
										OFFSET -29.960503 0.000000 0.000000
										CHANNELS 3 Xrotation Yrotation Zrotation
										JOINT RightHand
										{
											OFFSET -27.849251 0.000000 0.000000
											CHANNELS 3 Xrotation Yrotation Zrotation
											End Site
											{
												OFFSET 0 0 0
											}
										}
									}
								}
							}
						}
					}
				}
			}
		}
	}
}
MOTION
Frames: 6
Frame Time: 0.03333333
70.281837 92.665138 43.379028 0.000000 0.000000 0.000000 4.959922 69.325402 -5.061993 -30.701048 -9.408004 -1.048236 20.526822 -0.094229 -8.560554 9.914249 -18.563288 7.326617 0.000000 0.000000 0.000000 4.959922 69.325402 -5.061993 2.758477 -12.779928 -0.837220 31.120230 -1.126216 -2.726710 2.469718 -12.923526 13.039517 0.000000 0.000000 0.000000 4.959922 69.325402 -5.061993 0.000000 0.000001 0.000000 1.504607 16.152474 -2.052680 0.267654 12.712500 -1.770098 0.000000 0.000000 0.000000 0.303316 12.613134 -2.378699 6.982317 -6.992666 -0.293898 0.000000 0.000000 0.000000 0.303316 12.613134 -2.378699 -2.077719 -8.797571 -14.650052 25.493708 -51.832181 -33.182046 0.000048 -68.776535 0.000047 0.000000 0.000000 0.000000 0.303316 12.613134 -2.378699 -8.376127 33.670353 20.651458 6.514644 31.976282 48.490689 0.000010 48.553353 -0.000011 0.000000 0.000000 0.000000 
69.627098 92.647858 43.115829 0.000000 0.000000 0.000000 4.332728 67.315927 -4.410770 -30.693504 -9.486539 -0.604208 20.742205 1.523987 -8.608026 9.786933 -18.300211 7.172061 0.000000 0.000000 0.000000 4.332728 67.315927 -4.410770 3.492144 -12.315570 -1.306032 30.196502 -2.766730 -2.903924 -1.103561 -15.156209 10.880692 0.000000 0.000000 0.000000 4.332728 67.315927 -4.410770 0.000000 0.000000 0.000000 1.489445 15.315886 -1.782535 0.343534 12.111561 -1.597175 0.000000 0.000000 0.000000 0.355242 12.030031 -2.142362 6.751916 -6.766926 -0.487901 0.000000 0.000000 0.000000 0.355242 12.030031 -2.142362 -1.967087 -8.442191 -14.580898 23.731685 -53.081676 -34.699325 -0.000026 -66.037356 -0.000023 0.000000 0.000000 0.000000 0.355242 12.030031 -2.142362 -8.428599 32.859050 21.486419 5.768018 31.090943 48.692026 -0.000012 48.134430 -0.000004 0.000000 0.000000 0.000000 
68.680626 92.516998 42.914700 0.000000 0.000000 0.000000 3.846066 64.814097 -3.847445 -31.010934 -9.200311 0.260680 21.478030 3.268866 -8.848159 9.485985 -18.226080 6.918644 0.000000 0.000000 0.000000 3.846066 64.814097 -3.847445 6.554568 -11.189286 -1.198226 26.094465 0.341812 -3.020536 -3.514025 -25.317307 9.022379 0.000000 0.000000 0.000000 3.846066 64.814097 -3.847445 0.000000 -0.000002 0.000000 1.475339 14.640471 -1.756336 0.371863 11.541100 -1.378605 0.000000 0.000000 0.000000 0.372756 11.478284 -1.856315 6.496662 -6.533818 -0.673330 0.000000 0.000000 0.000000 0.372756 11.478284 -1.856315 -1.822196 -8.117081 -14.348530 21.935731 -54.672157 -36.106562 0.000012 -62.965069 0.000028 0.000000 0.000000 0.000000 0.372756 11.478284 -1.856315 -8.552619 31.896891 22.612287 5.447678 30.142516 48.410837 -0.000010 48.027623 0.000024 0.000000 0.000000 0.000000 
67.736412 92.401566 42.700348 0.000000 0.000000 0.000000 3.510806 62.114273 -3.035201 -30.893898 -9.000215 0.774599 21.449113 5.482059 -8.989121 9.456814 -18.097585 6.582696 0.000000 0.000000 0.000000 3.510806 62.114273 -3.035201 9.177607 -13.660864 -0.185575 22.612475 1.323553 -4.521147 -8.197070 -30.849072 6.039716 0.000000 0.000000 0.000000 3.510806 62.114273 -3.035201 0.000000 0.000001 0.000000 1.516205 14.118500 -2.217373 0.373124 11.056581 -1.378680 0.000000 0.000000 0.000000 0.360282 11.001744 -1.801466 6.259899 -6.324403 -0.669001 0.000000 0.000000 0.000000 0.360282 11.001744 -1.801466 -1.707230 -7.830351 -14.234793 20.800335 -56.184460 -36.603636 -0.000031 -60.431267 -0.000036 0.000000 0.000000 0.000000 0.360282 11.001744 -1.801466 -8.647025 30.837785 23.797754 5.562964 29.024117 47.757468 0.000006 48.635287 -0.000008 0.000000 0.000000 0.000000 
66.818031 92.341621 42.616295 0.000000 0.000000 0.000000 3.049775 59.119180 -2.404729 -30.836217 -8.306552 1.632348 21.908154 5.463605 -8.836545 8.741281 -16.201318 5.759253 0.000000 0.000000 0.000000 3.049775 59.119180 -2.404729 11.161774 -14.889614 0.812116 18.746742 -0.812643 -5.595729 -10.786448 -30.910909 5.151601 0.000000 0.000000 0.000000 3.049775 59.119180 -2.404729 0.000000 0.000001 0.000000 1.595587 13.666205 -2.324029 0.473699 10.558946 -1.338844 0.000000 0.000000 0.000000 0.448890 10.511828 -1.703654 5.760453 -6.022644 -0.867655 0.000000 0.000000 0.000000 0.448890 10.511828 -1.703654 -1.740805 -7.637743 -14.657101 20.361236 -56.245740 -36.459768 -0.000040 -59.980631 -0.000052 0.000000 0.000000 0.000000 0.448890 10.511828 -1.703654 -8.518743 29.854781 24.506813 6.262285 28.296237 46.432019 -0.000002 50.767833 0.000003 0.000000 0.000000 0.000000 
65.896141 92.003349 42.587563 0.000000 0.000000 0.000000 2.824165 56.148509 -2.084434 -31.940598 -7.329432 2.362601 24.462729 5.316007 -8.193296 6.995261 -14.716288 4.649378 0.000000 0.000000 0.000000 2.824165 56.148509 -2.084434 11.863983 -14.804672 0.850386 17.145913 -0.879922 -6.049108 -13.195289 -31.090833 5.635889 0.000000 0.000000 0.000000 2.824165 56.148509 -2.084434 0.000000 0.000002 0.000000 1.905179 12.864916 -2.227227 0.805186 9.572520 -1.160786 0.000000 0.000000 0.000000 0.763335 9.542947 -1.416158 4.377814 -5.503740 -1.438614 0.000000 0.000000 0.000000 0.763335 9.542947 -1.416158 -1.968491 -7.572952 -15.692872 19.948742 -54.084385 -36.717021 0.000009 -62.208379 0.000022 0.000000 0.000000 0.000000 0.763335 9.542947 -1.416158 -8.124824 29.038723 24.523934 7.747116 28.375579 44.150551 0.000014 54.846453 -0.000005 0.000000 0.000000 0.000000 
